<svg viewBox="0 0 442 120" fill="none" xmlns="http://www.w3.org/2000/svg">
<path d="M7.752 59.008C8.71467 55.8667 9.576 51.2307 10.336 45.1C11.1467 38.9187 11.552 34.3587 11.552 31.42V14.016H63.916V59.008H67.64V78.54H60.496V66H11.172V78.54H4.028V59.008H7.752ZM56.164 59.008V21.008H19.304V31.42C19.304 35.372 19 40.0587 18.392 45.48C17.784 50.9013 16.9987 55.4107 16.036 59.008H56.164ZM85.7108 14.016V59.616L130.323 14.016H141.647V66H133.895V20.856L89.6628 66H77.9588V14.016H85.7108ZM161.628 47.912C161.628 53.4347 162.844 56.8293 165.276 58.096C167.454 59.2107 173.382 59.768 183.06 59.768C191.622 59.768 197.373 59.236 200.312 58.172C203.301 57.108 204.796 54.8533 204.796 51.408C204.796 48.1653 203.706 45.9107 201.528 44.644C199.805 43.6307 197.044 43.124 193.244 43.124H169.304V36.132H193.244C197.094 36.132 199.83 35.7013 201.452 34.84C203.681 33.6747 204.796 31.4707 204.796 28.228C204.796 24.884 203.326 22.7307 200.388 21.768C197.449 20.8053 191.673 20.324 183.06 20.324C173.281 20.324 167.378 20.8307 165.352 21.844C162.869 23.1107 161.628 26.5307 161.628 32.104H153.876C153.876 23.8453 155.573 18.652 158.968 16.524C162.362 14.3453 170.393 13.256 183.06 13.256C189.545 13.256 194.257 13.4587 197.196 13.864C202.06 14.5227 205.708 15.84 208.14 17.816C211.078 20.1973 212.548 23.668 212.548 28.228C212.548 31.572 212.092 34.1053 211.18 35.828C210.268 37.5 208.849 38.9187 206.924 40.084C208.798 41.148 210.192 42.5667 211.104 44.34C212.066 46.0627 212.548 48.4187 212.548 51.408C212.548 56.1707 211.484 59.6413 209.356 61.82C207.278 63.9987 203.96 65.4173 199.4 66.076C196.208 66.532 190.761 66.76 183.06 66.76C170.393 66.76 162.362 65.696 158.968 63.568C155.573 61.44 153.876 56.2213 153.876 47.912H161.628ZM259.976 14.016L287.336 66H278.596L272.44 54.448H235.352L229.272 66H220.532L247.892 14.016H259.976ZM269.096 47.532L254.96 20.248H252.984L238.848 47.532H269.096ZM304.073 14.016V59.54L348.685 14.016H360.009V66H352.257V20.78L308.025 66H296.321V14.016H304.073ZM316.081 6.264H339.337V13.256H316.081V6.264ZM381.918 14.016V36.056H426.682V14.016H434.434V66H426.682V43.048H381.918V66H374.166V14.016H381.918Z" fill="black"/>
<path d="M5.76 89.376V99.816H26.964V89.376H30.636V114H26.964V103.128H5.76V114H2.088V89.376H5.76ZM35.0016 89.376H40.0416L54.9456 105.756L64.2696 89.376H68.4456L56.8536 109.644C56.0136 111.132 54.9336 112.236 53.6136 112.956C52.2936 113.652 50.6256 114 48.6096 114H40.5456V110.688H48.7536C49.7616 110.688 50.6016 110.544 51.2736 110.256C51.9696 109.968 52.5216 109.452 52.9296 108.708L35.0016 89.376ZM90.0773 114V89.376H108.977C111.497 89.376 113.429 89.976 114.773 91.176C116.117 92.376 116.789 94.104 116.789 96.36C116.789 98.832 115.865 100.416 114.017 101.112C115.073 101.472 115.913 102.072 116.537 102.912C117.305 103.944 117.689 105.24 117.689 106.8C117.689 109.224 117.017 111.036 115.673 112.236C114.353 113.412 112.409 114 109.841 114H90.0773ZM93.7493 92.688V99.672H108.977C110.537 99.672 111.617 99.408 112.217 98.88C112.841 98.328 113.153 97.488 113.153 96.36C113.153 95.232 112.865 94.368 112.289 93.768C111.593 93.048 110.489 92.688 108.977 92.688H93.7493ZM93.7493 102.984V110.688H109.805C111.197 110.688 112.241 110.34 112.937 109.644C113.657 108.924 114.017 107.988 114.017 106.836C114.017 105.708 113.657 104.784 112.937 104.064C112.217 103.344 111.173 102.984 109.805 102.984H93.7493ZM127.37 101.688C127.37 105.72 127.838 108.228 128.774 109.212C129.95 110.436 132.902 111.048 137.63 111.048C142.358 111.048 145.262 110.52 146.342 109.464C147.302 108.528 147.782 105.936 147.782 101.688C147.782 97.296 147.29 94.644 146.306 93.732C145.322 92.82 142.43 92.364 137.63 92.364C132.686 92.364 129.734 92.796 128.774 93.66C127.838 94.5 127.37 97.176 127.37 101.688ZM123.698 101.724C123.698 96.06 124.418 92.544 125.858 91.176C127.394 89.736 131.318 89.016 137.63 89.016C143.87 89.016 147.734 89.724 149.222 91.14C150.71 92.556 151.454 96.072 151.454 101.688C151.454 107.352 150.686 110.88 149.15 112.272C147.614 113.664 143.774 114.36 137.63 114.36C131.486 114.36 127.622 113.664 126.038 112.272C124.478 110.88 123.698 107.364 123.698 101.724ZM156.713 89.376H182.453V92.688H171.437V114H167.765V92.688H156.713V89.376ZM242.864 89.376H248.372L234.08 101.364L250.028 114H244.34L230.696 103.02H228.284V114H224.612V103.02H222.164L208.556 114H202.832L218.816 101.364L204.488 89.376H209.996L222.128 99.708H224.612V89.376H228.284V99.708H230.732L242.864 89.376ZM254.577 89.376H278.157V92.688H258.249V99.852H277.473V103.164H258.249V110.688H278.157V114H254.577V89.376ZM306.596 101.688C306.596 105.72 307.064 108.228 308 109.212C309.176 110.436 312.128 111.048 316.856 111.048C321.584 111.048 324.488 110.52 325.568 109.464C326.528 108.528 327.008 105.936 327.008 101.688C327.008 97.296 326.516 94.644 325.532 93.732C324.548 92.82 321.656 92.364 316.856 92.364C311.912 92.364 308.96 92.796 308 93.66C307.064 94.5 306.596 97.176 306.596 101.688ZM302.924 101.724C302.924 96.06 303.644 92.544 305.084 91.176C306.62 89.736 310.544 89.016 316.856 89.016C323.096 89.016 326.96 89.724 328.448 91.14C329.936 92.556 330.68 96.072 330.68 101.688C330.68 107.352 329.912 110.88 328.376 112.272C326.84 113.664 323 114.36 316.856 114.36C310.712 114.36 306.848 113.664 305.264 112.272C303.704 110.88 302.924 107.364 302.924 101.724ZM340.764 89.376V99.816H361.968V89.376H365.64V114H361.968V103.128H340.764V114H337.092V89.376H340.764Z" fill="black"/>
<path d="M393.912 114H429.979V79.4023" stroke="black" stroke-width="8" stroke-miterlimit="10"/>
<path d="M393 78L430 114" stroke="black" stroke-width="8" stroke-miterlimit="10"/>
</svg>
